#define 5ed7c921c6194e3eb26eae2e41e39609mYoxvb8rgDxtQmbl_width 16
#define 5ed7c921c6194e3eb26eae2e41e39609mYoxvb8rgDxtQmbl_height 16
static char 5ed7c921c6194e3eb26eae2e41e39609mYoxvb8rgDxtQmbl_bits[] = {
  0x00, 0x00, 0x80, 0x01, 0x30, 0x0C, 0x80, 0x01, 0xC0, 0x03, 0xD8, 0x1B, 
  0x00, 0x00, 0xF8, 0x1F, 0x0C, 0x30, 0xA4, 0x25, 0x04, 0x20, 0xB4, 0x2D, 
  0x04, 0x20, 0xFC, 0x3F, 0x00, 0x00, 0x00, 0x00, };
